# xmcd CD database file
#
# Track frame offsets:
#	150
#	12496
#	25434
#	38506
#	50525
#	62928
#	73849
#	84070
#	98620
#	112492
#
# Disc length: 1748 seconds
#
# Revision: 0
# Processed by: cddbd v1.5.2PL0 Copyright (c) Steve Scherf et al.
# Submitted via: CDex 1.51
#
DISCID=8406d20a
DTITLE=Tracy Reynolds - The Places She Goes
DYEAR=1900
DGENRE=Country
TTITLE0=The Bright Side
TTITLE1=I Taste the Salt
TTITLE2=Path of Least Resistance
TTITLE3=The Eagle
TTITLE4=Hurry Up Get Up and Go
TTITLE5=Things That Heartaches Are Made Of
TTITLE6=Point Of No Return
TTITLE7=Over the Edge
TTITLE8=Time Has Wings
TTITLE9=The Places She Goes
EXTD=
EXTT0=
EXTT1=
EXTT2=
EXTT3=
EXTT4=
EXTT5=
EXTT6=
EXTT7=
EXTT8=
EXTT9=
PLAYORDER=
